<?xml version="1.0" encoding="UTF-8" standalone="no"?>
<!-- Created with Inkscape (http://www.inkscape.org/) -->

<svg
   width="1630"
   height="460"
   viewBox="0 0 431.27081 121.70834"
   version="1.1"
   id="svg1"
   inkscape:version="1.4 (e7c3feb100, 2024-10-09)"
   sodipodi:docname="logo.svg"
   inkscape:export-filename="pengwann_logo_github.png"
   inkscape:export-xdpi="96"
   inkscape:export-ydpi="96"
   xmlns:inkscape="http://www.inkscape.org/namespaces/inkscape"
   xmlns:sodipodi="http://sodipodi.sourceforge.net/DTD/sodipodi-0.dtd"
   xmlns="http://www.w3.org/2000/svg"
   xmlns:svg="http://www.w3.org/2000/svg">
  <sodipodi:namedview
     id="namedview1"
     pagecolor="#ffffff"
     bordercolor="#000000"
     borderopacity="0.25098039"
     inkscape:showpageshadow="2"
     inkscape:pageopacity="0.0"
     inkscape:pagecheckerboard="false"
     inkscape:deskcolor="#d1d1d1"
     inkscape:document-units="mm"
     inkscape:zoom="0.5"
     inkscape:cx="1046"
     inkscape:cy="426"
     inkscape:window-width="2560"
     inkscape:window-height="1440"
     inkscape:window-x="0"
     inkscape:window-y="0"
     inkscape:window-maximized="0"
     inkscape:current-layer="layer1"
     inkscape:export-bgcolor="#ffffff00"
     showgrid="false"
     showguides="false" />
  <defs
     id="defs1" />
  <g
     inkscape:label="Layer 1"
     inkscape:groupmode="layer"
     id="layer1">
    <path
       style="fill:#7851a9;fill-opacity:1;stroke:none;stroke-width:0.0521896;stroke-opacity:1"
       d="m 38.653498,1.9544923 c -2.188358,0.01093 -4.350715,0.516588 -6.409018,1.232775 -1.663906,0.623066 -3.296816,1.369085 -4.781968,2.350162 -1.641887,1.2629 -2.835026,3.028712 -3.721266,4.8816287 -1.851718,3.981668 -2.308752,8.456404 -2.175357,12.800889 0.145659,4.33837 0.904973,8.634822 1.935721,12.843573 0.170294,0.25254 0.423841,-0.0882 0.575818,-0.201726 2.680121,-2.617388 5.952805,-4.761381 9.67005,-5.509768 2.947715,-0.569402 6.002967,-0.208299 8.738422,1.026681 2.645709,1.127937 4.931709,2.942032 6.955441,4.958704 0.137824,0.186521 0.418798,0.0079 0.294383,-0.19255 -0.959397,-1.997146 -2.104813,-3.906517 -3.370812,-5.724641 -1.618631,-2.291019 -3.516675,-4.44019 -5.887837,-5.974276 -0.25265,-0.13993 -0.09538,-0.488217 -0.153066,-0.722276 -0.04112,-1.866024 -0.07989,-3.73694 -0.05936,-5.605094 2.46272,-1.445363 4.889645,-3.02965 6.886675,-5.090315 0.899578,-0.938665 1.444765,-2.15445 2.438535,-3.006098 2.226313,-2.0373047 5.103265,-3.2478247 7.975621,-4.0846467 0.792848,-0.236264 1.607471,-0.413545 2.40157,-0.615752 0.191776,-0.212906 -0.204374,-0.298869 -0.360674,-0.352506 -1.34692,-0.306951 -2.745549,-0.229725 -4.116983,-0.218092 -2.00828,0.04415 -4.028067,0.25346 -6.014516,0.421549 -0.349332,-0.0085 -0.589653,-0.346574 -0.891196,-0.490806 -2.300899,-1.517585 -5.003369,-2.378774 -7.733477,-2.671531 -0.730708,-0.05322 -1.464342,-0.06139 -2.196706,-0.05588 z"
       id="path10" />
    <ellipse
       style="fill:#7851a9;fill-opacity:1;stroke-width:0.264583"
       id="path1"
       cx="31.220798"
       cy="88.729469"
       rx="30.851391"
       ry="67.754974" />
    <path
       d="M 77.289293,110.48187 V 45.658987 h 6.879163 v 8.02569 q 0.705555,-1.852083 1.852082,-3.527776 1.146528,-1.763888 2.734027,-2.910415 1.675693,-1.234722 3.61597,-1.763888 2.028471,-0.529167 4.056942,-0.529167 2.20486,0 4.321523,0.617361 2.20486,0.617361 3.96875,1.940277 1.76389,1.322916 2.91042,3.174998 1.23472,1.852082 1.94027,3.968748 0.70556,2.028471 0.97014,4.233331 0.26458,2.20486 0.26458,4.40972 v 10.583328 q 0,2.204859 -0.26458,4.409719 -0.26458,2.20486 -0.97014,4.321526 -0.70555,2.028471 -1.94027,3.880553 -1.14653,1.852083 -2.91042,3.174999 -1.76389,1.322916 -3.96875,1.940276 -2.116663,0.617361 -4.321523,0.617361 -2.028471,0 -4.056942,-0.529166 -1.940277,-0.529167 -3.61597,-1.675694 -1.587499,-1.234721 -2.734027,-2.910415 -1.146527,-1.763888 -1.852082,-3.61597 V 110.48187 Z M 93.781645,86.05202 q 1.499305,0 2.910415,-0.352777 1.499305,-0.352778 2.734027,-1.146527 1.234723,-0.881944 2.116663,-2.116666 0.97014,-1.234722 1.49931,-2.645832 0.52916,-1.41111 0.70555,-2.910415 0.17639,-1.499305 0.17639,-2.998609 V 63.297866 q 0,-1.499305 -0.17639,-2.99861 -0.17639,-1.499304 -0.70555,-2.910415 -0.52917,-1.41111 -1.49931,-2.645832 -0.88194,-1.234721 -2.116663,-2.028471 -1.234722,-0.881944 -2.734027,-1.234721 -1.41111,-0.352778 -2.910415,-0.352778 -1.499304,0 -2.998609,0.352778 -1.411111,0.352777 -2.557638,1.234721 -1.146527,0.881944 -2.028471,2.20486 -0.793749,1.234722 -1.234721,2.645832 -0.440972,1.322916 -0.617361,2.822221 -0.176389,1.41111 -0.176389,2.910415 v 10.583328 q 0,1.499304 0.176389,2.998609 0.176389,1.41111 0.617361,2.822221 0.440972,1.322916 1.234721,2.645832 0.881944,1.234721 2.028471,2.116665 1.146527,0.881944 2.557638,1.234722 1.499305,0.352777 2.998609,0.352777 z m 44.185395,6.173608 q -2.38125,0 -4.7625,-0.440972 -2.38125,-0.440972 -4.49791,-1.587499 -2.02847,-1.234722 -3.70417,-2.99861 -1.5875,-1.852082 -2.64583,-3.968747 -0.97014,-2.20486 -1.32292,-4.586109 -0.35277,-2.381249 -0.35277,-4.762497 V 63.297866 q 0,-2.381249 0.35277,-4.762498 0.35278,-2.381248 1.32292,-4.497914 0.97014,-2.20486 2.55764,-3.968748 1.67569,-1.852082 3.70416,-2.998609 2.02847,-1.146527 4.40972,-1.587499 2.38125,-0.529167 4.7625,-0.529167 2.38125,0 4.7625,0.529167 2.38125,0.440972 4.40972,1.587499 2.02847,1.146527 3.61597,2.998609 1.67569,1.763888 2.64583,3.968748 0.97014,2.116666 1.32291,4.497914 0.35278,2.381249 0.35278,4.762498 v 8.378468 H 127.5601 v 2.20486 q 0,1.499304 0.17639,2.998609 0.17639,1.499305 0.70555,2.910415 0.61736,1.41111 1.49931,2.645832 0.97014,1.234722 2.20486,2.116666 1.32291,0.793749 2.82222,1.146527 1.4993,0.352777 2.99861,0.352777 1.67569,0 3.35139,-0.352777 1.76388,-0.352778 3.17499,-1.234722 1.41111,-0.881944 2.29306,-2.381249 0.97014,-1.499304 1.05833,-3.263192 h 6.87916 q -0.0882,2.028471 -0.79375,3.968748 -0.61736,1.852082 -1.85208,3.527776 -1.14653,1.587499 -2.82222,2.82222 -1.5875,1.146527 -3.43958,1.852083 -1.85208,0.705555 -3.88055,0.970138 -2.02848,0.264583 -3.96875,0.264583 z M 148.0212,65.502726 v -2.20486 q 0,-1.499305 -0.17639,-2.99861 -0.17639,-1.499304 -0.70555,-2.910415 -0.52917,-1.41111 -1.49931,-2.645832 -0.88194,-1.234721 -2.11666,-2.028471 -1.23473,-0.881944 -2.73403,-1.234721 -1.49931,-0.352778 -2.99861,-0.352778 -1.49931,0 -2.99861,0.352778 -1.4993,0.352777 -2.73403,1.234721 -1.23472,0.79375 -2.20486,2.028471 -0.88194,1.234722 -1.41111,2.645832 -0.52916,1.411111 -0.70555,2.910415 -0.17639,1.499305 -0.17639,2.99861 v 2.20486 z m 17.46249,26.017347 V 45.658987 h 6.87916 v 8.02569 q 0.70556,-1.852083 1.85209,-3.527776 1.14652,-1.675694 2.73402,-2.910415 1.6757,-1.234722 3.61597,-1.763888 2.02847,-0.529167 3.96875,-0.529167 2.20486,0 4.32153,0.617361 2.11666,0.617361 3.70416,2.028471 1.67569,1.322916 2.82222,3.263193 1.14653,1.852082 1.76389,3.968748 0.70555,2.028471 0.88194,4.233331 0.26459,2.116665 0.26459,4.233331 v 28.222207 h -6.87917 V 63.297866 q 0,-1.499305 -0.17639,-2.910415 -0.17638,-1.499305 -0.61736,-2.822221 -0.44097,-1.41111 -1.32291,-2.645832 -0.79375,-1.234721 -1.94028,-2.116665 -1.14653,-0.881944 -2.55764,-1.234722 -1.41111,-0.440972 -2.91041,-0.440972 -1.49931,0 -2.91042,0.440972 -1.41111,0.352778 -2.55763,1.234722 -1.14653,0.881944 -2.02848,2.116665 -0.79375,1.234722 -1.23472,2.645832 -0.44097,1.322916 -0.61736,2.822221 -0.17639,1.41111 -0.17639,2.910415 v 28.222207 z m 60.23677,19.667347 q -2.02847,0 -4.05694,-0.35277 -1.94028,-0.26459 -3.79236,-1.05834 -1.85208,-0.70555 -3.43958,-2.02847 -1.5875,-1.23472 -2.73403,-2.91041 -1.05833,-1.6757 -1.67569,-3.61597 -0.52917,-1.94028 -0.61736,-3.968751 h 6.87916 q 0.0882,1.763888 0.79375,3.263191 0.79375,1.5875 2.11667,2.64583 1.41111,1.05834 3.0868,1.41111 1.6757,0.44098 3.43958,0.44098 1.49931,0 2.91042,-0.35278 1.4993,-0.35278 2.64583,-1.23472 1.23472,-0.88195 2.02847,-2.11667 0.88195,-1.23472 1.32292,-2.645831 0.52916,-1.41111 0.70555,-2.910415 0.17639,-1.41111 0.17639,-2.910415 v -9.348606 q -0.70555,1.852082 -1.85208,3.61597 -1.14653,1.675694 -2.82222,2.910415 -1.5875,1.146527 -3.61597,1.675694 -1.94028,0.529166 -3.96875,0.529166 -2.20486,0 -4.40972,-0.617361 -2.11667,-0.61736 -3.88055,-1.940276 -1.76389,-1.322916 -2.99861,-3.174999 -1.14653,-1.852082 -1.85209,-3.880553 -0.70555,-2.116666 -0.97013,-4.321526 -0.26459,-2.20486 -0.26459,-4.409719 V 63.297866 q 0,-2.20486 0.26459,-4.40972 0.26458,-2.20486 0.97013,-4.233331 0.70556,-2.116666 1.85209,-3.968748 1.23472,-1.852082 2.99861,-3.174998 1.76388,-1.322916 3.88055,-1.940277 2.20486,-0.617361 4.40972,-0.617361 2.02847,0 3.96875,0.529167 2.02847,0.529166 3.61597,1.763888 1.67569,1.146527 2.82222,2.910415 1.14653,1.675693 1.85208,3.527776 v -8.02569 h 6.87916 v 47.184002 q 0,2.381249 -0.35277,4.674303 -0.35278,2.381249 -1.32292,4.497918 -0.88194,2.20486 -2.46944,3.96874 -1.49931,1.85209 -3.52778,2.99861 -2.02847,1.23473 -4.40972,1.6757 -2.29305,0.52916 -4.58611,0.52916 z m 0.17639,-25.1354 q 1.49931,0 2.91042,-0.352777 1.4993,-0.352778 2.64583,-1.234722 1.14653,-0.881944 1.94028,-2.116665 0.88194,-1.322916 1.32291,-2.645832 0.44097,-1.411111 0.61736,-2.822221 0.17639,-1.499305 0.17639,-2.998609 V 63.297866 q 0,-1.499305 -0.17639,-2.910415 -0.17639,-1.499305 -0.61736,-2.822221 -0.44097,-1.41111 -1.32291,-2.645832 -0.79375,-1.322916 -1.94028,-2.20486 -1.14653,-0.881944 -2.64583,-1.234721 -1.41111,-0.352778 -2.91042,-0.352778 -1.4993,0 -2.99861,0.352778 -1.41111,0.352777 -2.64583,1.234721 -1.23472,0.79375 -2.20486,2.028471 -0.88194,1.234722 -1.41111,2.645832 -0.52917,1.411111 -0.70555,2.910415 -0.17639,1.499305 -0.17639,2.99861 v 10.583328 q 0,1.499304 0.17639,2.998609 0.17638,1.499305 0.70555,2.910415 0.52917,1.41111 1.41111,2.645832 0.97014,1.234722 2.20486,2.116666 1.23472,0.793749 2.64583,1.146527 1.49931,0.352777 2.99861,0.352777 z m 32.45554,5.468053 -7.49652,-64.822882 h 6.87916 l 4.23333,55.474276 4.6743,-37.30623 h 6.87917 l 4.6743,37.30623 4.23333,-55.474276 h 6.87916 l -7.49652,64.822882 h -6.79097 l -4.93889,-34.748592 -4.93888,34.748592 z m 51.59372,0.705555 q -2.64583,0 -5.20347,-0.793749 -2.55763,-0.79375 -4.40972,-2.734027 -1.76388,-1.940276 -2.55763,-4.497914 -0.70556,-2.557638 -0.70556,-5.203469 0,-2.20486 0.52917,-4.40972 0.61736,-2.20486 2.02847,-3.968748 1.41111,-1.763888 3.26319,-2.910415 1.94028,-1.234722 4.05694,-1.940277 2.20486,-0.705555 4.40972,-0.970138 2.20486,-0.264584 4.49792,-0.264584 h 7.8493 v -4.321525 q 0,-1.852082 -0.61736,-3.704165 -0.61736,-1.852082 -2.02847,-3.086804 -1.41111,-1.234721 -3.2632,-1.763887 -1.85208,-0.529167 -3.70416,-0.529167 -1.76389,0 -3.52778,0.352778 -1.67569,0.352777 -3.0868,1.322916 -1.41111,0.970138 -2.20486,2.557637 -0.79375,1.587499 -0.79375,3.263193 h -6.87916 q 0,-2.028471 0.52916,-3.968748 0.61736,-1.940277 1.76389,-3.61597 1.14653,-1.675694 2.73403,-2.822221 1.67569,-1.234722 3.52777,-1.940277 1.85209,-0.793749 3.88056,-1.058332 2.02847,-0.264584 4.05694,-0.264584 2.11666,0 4.23333,0.352778 2.11667,0.264583 4.05694,1.146527 1.94028,0.881944 3.52778,2.293054 1.67569,1.411111 2.73402,3.263193 1.05834,1.852082 1.49931,3.968748 0.44097,2.116665 0.44097,4.233331 v 31.309011 h -6.87916 v -7.584718 q -0.79375,1.940277 -2.29306,3.61597 -1.41111,1.587499 -3.26319,2.734026 -1.85208,1.058333 -3.96875,1.499305 -2.11666,0.440972 -4.23333,0.440972 z m 2.64583,-6.173608 q 2.11667,0 4.23334,-0.529166 2.20486,-0.617361 3.79235,-2.028471 1.5875,-1.499305 2.29306,-3.527776 0.79375,-2.116666 0.79375,-4.321526 v -4.938886 h -7.8493 q -1.32292,0 -2.73403,0.176389 -1.32292,0.08819 -2.64583,0.440972 -1.23472,0.264583 -2.46944,0.881944 -1.23473,0.529166 -2.20486,1.41111 -0.97014,0.881944 -1.41111,2.20486 -0.44098,1.234722 -0.44098,2.557638 0,1.587499 0.61736,3.174998 0.61736,1.587499 1.85209,2.645832 1.23472,1.058333 2.82222,1.499305 1.67569,0.352777 3.35138,0.352777 z m 29.28054,5.468053 V 45.658987 h 6.87917 v 8.02569 q 0.70555,-1.852083 1.85208,-3.527776 1.14653,-1.675694 2.73403,-2.910415 1.67569,-1.234722 3.61597,-1.763888 2.02847,-0.529167 3.96874,-0.529167 2.20486,0 4.32153,0.617361 2.11666,0.617361 3.70416,2.028471 1.6757,1.322916 2.82222,3.263193 1.14653,1.852082 1.76389,3.968748 0.70556,2.028471 0.88195,4.233331 0.26458,2.116665 0.26458,4.233331 v 28.222207 h -6.87916 V 63.297866 q 0,-1.499305 -0.17639,-2.910415 -0.17639,-1.499305 -0.61736,-2.822221 -0.44097,-1.41111 -1.32292,-2.645832 -0.79375,-1.234721 -1.94028,-2.116665 -1.14652,-0.881944 -2.55763,-1.234722 -1.41111,-0.440972 -2.91042,-0.440972 -1.4993,0 -2.91041,0.440972 -1.41111,0.352778 -2.55764,1.234722 -1.14653,0.881944 -2.02847,2.116665 -0.79375,1.234722 -1.23472,2.645832 -0.44098,1.322916 -0.61736,2.822221 -0.17639,1.41111 -0.17639,2.910415 v 28.222207 z m 44.0972,0 V 45.658987 h 6.87917 v 8.02569 q 0.70555,-1.852083 1.85208,-3.527776 1.14652,-1.675694 2.73402,-2.910415 1.6757,-1.234722 3.61597,-1.763888 2.02848,-0.529167 3.96875,-0.529167 2.20486,0 4.32153,0.617361 2.11666,0.617361 3.70416,2.028471 1.6757,1.322916 2.82222,3.263193 1.14653,1.852082 1.76389,3.968748 0.70556,2.028471 0.88194,4.233331 0.26459,2.116665 0.26459,4.233331 v 28.222207 h -6.87916 V 63.297866 q 0,-1.499305 -0.17639,-2.910415 -0.17639,-1.499305 -0.61736,-2.822221 -0.44098,-1.41111 -1.32292,-2.645832 -0.79375,-1.234721 -1.94028,-2.116665 -1.14652,-0.881944 -2.55763,-1.234722 -1.41111,-0.440972 -2.91042,-0.440972 -1.4993,0 -2.91041,0.440972 -1.41112,0.352778 -2.55764,1.234722 -1.14653,0.881944 -2.02847,2.116665 -0.79375,1.234722 -1.23472,2.645832 -0.44098,1.322916 -0.61737,2.822221 -0.17638,1.41111 -0.17638,2.910415 v 28.222207 z"
       id="text14"
       style="font-size:88.1944px;font-family:'Iosevka Nerd Font Mono';-inkscape-font-specification:'Iosevka Nerd Font Mono';fill:#7851a9;stroke-width:1.76389"
       aria-label="pengWann" />
    <path
       style="fill:none;fill-opacity:0;stroke:#7851a9;stroke-width:5;stroke-linecap:round;stroke-dasharray:none;stroke-opacity:1"
       d="M 11.809344,119.20833 H 428.78556"
       id="path2" />
  </g>
</svg>
